<mxfile host="app.diagrams.net" modified="2024-03-10T13:41:19.238Z" agent="Mozilla/5.0 (Macintosh; Intel Mac OS X 10_15_7) AppleWebKit/605.1.15 (KHTML, like Gecko) Version/17.1 Safari/605.1.15" etag="20eEvL7-QllEPLYmuv1t" version="24.0.4" type="github">
  <diagram name="第 1 页" id="A4sy9P5K9z8p-SOSpdYQ">
    <mxGraphModel dx="1069" dy="506" grid="1" gridSize="10" guides="1" tooltips="1" connect="1" arrows="1" fold="1" page="1" pageScale="1" pageWidth="827" pageHeight="1169" math="0" shadow="0">
      <root>
        <mxCell id="0" />
        <mxCell id="1" parent="0" />
        <mxCell id="r-IDnnYRWlYm3rjLLLhq-7" value="" style="rounded=1;whiteSpace=wrap;html=1;" vertex="1" parent="1">
          <mxGeometry x="160" y="180" width="800" height="300" as="geometry" />
        </mxCell>
        <mxCell id="r-IDnnYRWlYm3rjLLLhq-5" value="" style="rounded=1;whiteSpace=wrap;html=1;" vertex="1" parent="1">
          <mxGeometry x="150" y="190" width="800" height="300" as="geometry" />
        </mxCell>
        <mxCell id="r-IDnnYRWlYm3rjLLLhq-6" value="&lt;h1 style=&quot;margin-top: 0px;&quot;&gt;Variational RGCN&lt;/h1&gt;&lt;p&gt;Lorem ipsum dolor sit amet, consectetur adipisicing elit, sed do eiusmod tempor incididunt ut labore et dolore magna aliqua.&lt;/p&gt;" style="text;html=1;whiteSpace=wrap;overflow=hidden;rounded=0;" vertex="1" parent="1">
          <mxGeometry x="170" y="200" width="210" height="110" as="geometry" />
        </mxCell>
        <mxCell id="r-IDnnYRWlYm3rjLLLhq-8" value="社交网络API" style="rounded=1;whiteSpace=wrap;html=1;" vertex="1" parent="1">
          <mxGeometry x="150" y="50" width="120" height="60" as="geometry" />
        </mxCell>
        <mxCell id="r-IDnnYRWlYm3rjLLLhq-10" value="图建构" style="rounded=1;whiteSpace=wrap;html=1;" vertex="1" parent="1">
          <mxGeometry x="320" y="50" width="120" height="60" as="geometry" />
        </mxCell>
        <mxCell id="r-IDnnYRWlYm3rjLLLhq-11" value="Encoder" style="rounded=1;whiteSpace=wrap;html=1;" vertex="1" parent="1">
          <mxGeometry x="490" y="50" width="120" height="60" as="geometry" />
        </mxCell>
        <mxCell id="r-IDnnYRWlYm3rjLLLhq-12" value="重参数化" style="rounded=1;whiteSpace=wrap;html=1;" vertex="1" parent="1">
          <mxGeometry x="660" y="50" width="120" height="60" as="geometry" />
        </mxCell>
        <mxCell id="r-IDnnYRWlYm3rjLLLhq-13" value="F" style="rounded=1;whiteSpace=wrap;html=1;" vertex="1" parent="1">
          <mxGeometry x="830" y="50" width="120" height="60" as="geometry" />
        </mxCell>
      </root>
    </mxGraphModel>
  </diagram>
</mxfile>
